<?xml version="1.0" encoding="iso-8859-1"?>
<!-- Uploaded to: SVG Repo, www.svgrepo.com, Generator: SVG Repo Mixer Tools -->
<svg height="800px" width="800px" version="1.1" id="Layer_1" xmlns="http://www.w3.org/2000/svg" xmlns:xlink="http://www.w3.org/1999/xlink" 
	 viewBox="0 0 511.999 511.999" xml:space="preserve">
<path style="fill:#C97767;" d="M453.222,136.899L344.446,245.676c0.093,2.571,0.151,5.151,0.151,7.747
	c0,82.909-47.532,153.213-113.366,177.782c63.981,29.45,147.549,13.409,206.307-45.349
	C510.617,312.778,517.639,201.316,453.222,136.899z"/>
<path d="M440.479,242.525c-0.955,0-1.927-0.088-2.866-0.279c-0.941-0.191-1.867-0.47-2.749-0.838
	c-0.897-0.367-1.748-0.823-2.542-1.352c-0.81-0.544-1.56-1.161-2.236-1.837c-0.676-0.676-1.294-1.426-1.823-2.234
	c-0.528-0.794-0.985-1.646-1.352-2.528c-0.367-0.897-0.645-1.823-0.836-2.749c-0.193-0.955-0.294-1.926-0.294-2.881
	c0-0.955,0.101-1.926,0.294-2.866c0.191-0.941,0.469-1.867,0.836-2.749c0.368-0.897,0.825-1.749,1.352-2.543
	c0.529-0.809,1.147-1.558,1.823-2.234s1.426-1.294,2.236-1.823c0.794-0.529,1.645-0.985,2.542-1.352
	c0.883-0.367,1.808-0.647,2.749-0.838c1.896-0.382,3.851-0.382,5.748,0c0.926,0.191,1.852,0.47,2.749,0.838
	c0.882,0.367,1.735,0.823,2.528,1.352c0.808,0.529,1.558,1.147,2.234,1.823c0.678,0.676,1.295,1.426,1.837,2.234
	c0.529,0.794,0.986,1.646,1.354,2.543c0.368,0.882,0.645,1.808,0.836,2.749c0.191,0.941,0.279,1.911,0.279,2.866
	c0,3.866-1.56,7.659-4.309,10.393c-0.676,0.676-1.426,1.294-2.234,1.837c-0.794,0.529-1.646,0.985-2.528,1.352
	c-0.897,0.367-1.823,0.647-2.749,0.838C442.405,242.437,441.435,242.525,440.479,242.525z"/>
<path style="fill:#FFB085;" d="M14.7,253.422c0,103.348,73.851,187.128,164.949,187.128V66.294
	C88.551,66.294,14.7,150.075,14.7,253.422z"/>
<path style="fill:#C97767;" d="M179.649,66.294v374.256c91.098,0,164.949-83.781,164.949-187.128S270.747,66.294,179.649,66.294z"/>
<path style="fill:#FFB085;" d="M344.446,245.676l108.776-108.776c-44.789-44.788-112.317-55.029-173.876-32.556
	C317.301,137.063,342.375,188.002,344.446,245.676z"/>
<path d="M463.617,126.505c-0.004-0.004-0.009-0.007-0.012-0.012C417.932,80.83,349.086,66.36,282.236,87.834
	c-29.106-22.827-64.475-36.24-102.586-36.24C80.591,51.594,0,142.134,0,253.422S80.591,455.25,179.649,455.25
	c17.694,0,34.795-2.903,50.957-8.283c21.638,9.04,44.773,13.437,68.209,13.437c52.95,0,107.372-22.409,149.117-64.153
	c37.877-37.877,60.49-86.601,63.678-137.197C514.843,207.76,497.798,160.687,463.617,126.505z M431.852,137.48l-76.072,76.072
	c-0.025-0.141-0.057-0.282-0.082-0.423c-0.35-1.936-0.728-3.86-1.127-5.776c-0.201-0.973-0.419-1.94-0.634-2.911
	c-0.209-0.936-0.423-1.87-0.644-2.8c-7.989-33.971-23.746-65.053-45.925-90.199C353.112,101.371,398.358,110.742,431.852,137.48z
	 M29.4,253.422c0-89.384,59.576-163.103,135.549-171.609v343.219C88.975,416.525,29.4,342.807,29.4,253.422z M194.349,81.813
	c64.809,7.257,117.676,61.972,131.817,133.379c0.123,0.628,0.253,1.254,0.37,1.885c0.11,0.591,0.212,1.185,0.318,1.779
	c0.166,0.941,0.331,1.882,0.485,2.827c0.073,0.451,0.143,0.904,0.213,1.355c0.176,1.142,0.345,2.287,0.503,3.435
	c0.041,0.298,0.082,0.597,0.122,0.897c0.19,1.435,0.368,2.874,0.525,4.319c0.003,0.029,0.007,0.059,0.01,0.088
	c0.52,4.766,0.87,9.578,1.044,14.426l0,0c0,0.001,0,0.003,0,0.004c0.047,1.298,0.082,2.525,0.106,3.703
	c0.021,1.169,0.037,2.337,0.037,3.51c0,2.101-0.044,4.191-0.109,6.277c-0.013,0.398-0.022,0.798-0.037,1.195
	c-0.073,1.968-0.176,3.928-0.307,5.881c-0.032,0.479-0.069,0.957-0.104,1.436c-0.135,1.829-0.291,3.653-0.476,5.468
	c-0.053,0.516-0.113,1.03-0.169,1.546c-0.162,1.476-0.345,2.946-0.539,4.411c-0.101,0.761-0.2,1.523-0.31,2.281
	c-0.218,1.504-0.457,3-0.709,4.492c-0.182,1.077-0.375,2.151-0.575,3.222c-0.088,0.476-0.184,0.95-0.276,1.424
	c-10.872,55.823-45.393,101.517-90.822,122.453c-0.448,0.206-0.898,0.407-1.348,0.609c-1.272,0.57-2.553,1.119-3.841,1.649
	c-0.976,0.4-1.954,0.794-2.94,1.172c-10.528,4.054-21.569,6.815-32.984,8.094V81.813H194.349z M482.269,257.205
	c-2.736,43.447-22.314,85.445-55.126,118.256c-44.036,44.036-103.958,63.274-157.539,52.767
	c10.299-6.674,19.895-14.428,28.688-23.107c0.213,0.001,0.425,0.009,0.638,0.009c39.482,0,79.157-17.227,109.908-47.976
	c16.514-16.515,29.57-36.344,37.758-57.343c2.436-6.252,4.467-12.658,6.037-19.041c1.94-7.884-2.878-15.846-10.76-17.787
	c-7.885-1.937-15.846,2.878-17.787,10.762c-1.267,5.146-2.909,10.325-4.883,15.389c-6.719,17.237-17.491,33.569-31.153,47.231
	c-18.056,18.056-40.375,30.608-63.265,36.151c13.281-20.446,23.126-43.701,28.829-68.638c0.016-0.069,0.031-0.138,0.047-0.207
	c0.948-4.166,1.782-8.376,2.495-12.63c0.148-0.879,0.297-1.757,0.435-2.64c0.148-0.954,0.288-1.911,0.425-2.869
	c0.16-1.126,0.312-2.255,0.456-3.385c0.101-0.804,0.207-1.605,0.301-2.412c0.222-1.911,0.426-3.829,0.601-5.756
	c0.031-0.344,0.053-0.689,0.082-1.033c0.146-1.692,0.272-3.391,0.379-5.095c0.041-0.651,0.075-1.304,0.11-1.957
	c0.081-1.476,0.147-2.958,0.198-4.442c0.022-0.616,0.046-1.232,0.063-1.849c0.056-2.052,0.093-4.112,0.093-6.178
	c0-0.592-0.003-1.192-0.009-1.801l93.359-93.359C474.177,185.174,484.629,219.764,482.269,257.205z"/>
<path d="M234.951,381.949c-4.619,0-9.164-2.171-12.027-6.233c-4.678-6.635-3.09-15.807,3.546-20.484
	c29.694-20.931,48.141-59.943,48.141-101.81c0-19.322-3.931-38.487-11.367-55.426c-2.181-4.97-4.682-9.795-7.431-14.338
	c-4.201-6.947-1.976-15.985,4.97-20.186c6.949-4.203,15.985-1.974,20.186,4.97c3.406,5.633,6.5,11.6,9.193,17.734
	c9.06,20.634,13.849,43.887,13.849,67.245c0,51.272-23.221,99.492-60.603,125.84C240.833,381.076,237.877,381.949,234.951,381.949z"
	/>
<path d="M234.931,154.297c-0.955,0-1.926-0.103-2.866-0.294c-0.941-0.176-1.867-0.47-2.749-0.838s-1.735-0.823-2.543-1.352
	c-0.794-0.529-1.558-1.147-2.234-1.823c-0.676-0.676-1.294-1.426-1.823-2.234c-0.529-0.794-0.985-1.646-1.352-2.528
	c-0.367-0.897-0.647-1.823-0.838-2.764s-0.279-1.911-0.279-2.866c0-0.955,0.088-1.926,0.279-2.866
	c0.191-0.941,0.47-1.867,0.838-2.749c0.367-0.897,0.823-1.749,1.352-2.543c0.529-0.809,1.147-1.558,1.823-2.234
	c0.676-0.676,1.441-1.294,2.234-1.823c0.808-0.529,1.661-0.985,2.543-1.352c0.882-0.367,1.808-0.661,2.749-0.838
	c1.896-0.382,3.851-0.382,5.748,0c0.941,0.176,1.867,0.47,2.749,0.838c0.882,0.368,1.735,0.823,2.543,1.352
	c0.794,0.529,1.558,1.147,2.234,1.823s1.279,1.426,1.823,2.234c0.529,0.794,0.985,1.646,1.352,2.543
	c0.367,0.882,0.647,1.808,0.838,2.749c0.191,0.941,0.279,1.911,0.279,2.866s-0.088,1.926-0.279,2.866
	c-0.191,0.941-0.47,1.867-0.838,2.764c-0.368,0.882-0.823,1.735-1.352,2.528c-0.544,0.809-1.147,1.558-1.823,2.234
	s-1.441,1.294-2.234,1.823c-0.809,0.529-1.661,0.985-2.543,1.352c-0.882,0.367-1.808,0.661-2.749,0.838
	C236.856,154.194,235.901,154.297,234.931,154.297z"/>
</svg>